<svg width="429" height="180" viewBox="0 0 429 180" fill="none" xmlns="http://www.w3.org/2000/svg">
<path d="M30.3295 47.9318V111H0.073864V1.90909H28.9091V21.1562H30.1875C32.6023 14.8116 36.6506 9.79261 42.3324 6.09943C48.0142 2.3589 54.9034 0.488637 63 0.488637C70.5758 0.488637 77.1809 2.14583 82.8153 5.46023C88.4498 8.77462 92.8295 13.5095 95.9545 19.6648C99.0795 25.7727 100.642 33.0644 100.642 41.5398V111H70.3864V46.9375C70.4337 40.2614 68.7292 35.053 65.2727 31.3125C61.8163 27.5246 57.0578 25.6307 50.9972 25.6307C46.9252 25.6307 43.3267 26.5066 40.2017 28.2585C37.1241 30.0104 34.7093 32.5672 32.9574 35.929C31.2528 39.2434 30.3769 43.2443 30.3295 47.9318ZM194.445 64.5511V1.90909H224.701V111H195.653V91.1847H194.516C192.054 97.5767 187.959 102.714 182.229 106.597C176.548 110.479 169.611 112.42 161.42 112.42C154.128 112.42 147.712 110.763 142.173 107.449C136.633 104.134 132.3 99.4233 129.175 93.3153C126.098 87.2074 124.535 79.892 124.488 71.3693V1.90909H154.744V65.9716C154.791 72.411 156.519 77.5009 159.928 81.2415C163.337 84.982 167.906 86.8523 173.636 86.8523C177.281 86.8523 180.691 86.0237 183.863 84.3665C187.035 82.6619 189.592 80.1525 191.533 76.8381C193.522 73.5237 194.493 69.428 194.445 64.5511ZM248.902 111V1.90909H277.737V21.1562H279.016C281.288 14.7642 285.076 9.72159 290.379 6.0284C295.682 2.33523 302.027 0.488637 309.413 0.488637C316.894 0.488637 323.263 2.3589 328.518 6.09943C333.774 9.79261 337.278 14.8116 339.03 21.1562H340.166C342.392 14.9062 346.416 9.91098 352.24 6.17045C358.111 2.38258 365.048 0.488637 373.05 0.488637C383.23 0.488637 391.492 3.73201 397.837 10.2188C404.229 16.6581 407.425 25.7964 407.425 37.6335V111H377.24V43.5994C377.24 37.5388 375.63 32.9934 372.411 29.9631C369.191 26.9328 365.166 25.4176 360.337 25.4176C354.844 25.4176 350.559 27.1695 347.482 30.6733C344.404 34.1297 342.865 38.6989 342.865 44.3807V111H313.533V42.9602C313.533 37.6098 311.994 33.3485 308.916 30.1761C305.886 27.0038 301.885 25.4176 296.913 25.4176C293.552 25.4176 290.521 26.2699 287.822 27.9744C285.171 29.6316 283.064 31.9754 281.501 35.0057C279.939 37.9886 279.158 41.4924 279.158 45.517V111H248.902ZM51.9936 179.844C49.1399 179.844 46.5968 179.349 44.3643 178.359C42.1319 177.35 40.3653 175.865 39.0646 173.904C37.7834 171.924 37.1428 169.459 37.1428 166.508C37.1428 164.023 37.599 161.936 38.5114 160.247C39.4238 158.558 40.6662 157.199 42.2386 156.17C43.8111 155.142 45.5971 154.365 47.5966 153.841C49.6155 153.317 51.7315 152.948 53.9446 152.734C56.5459 152.463 58.6425 152.21 60.2344 151.977C61.8262 151.725 62.9813 151.356 63.6996 150.871C64.4179 150.385 64.777 149.667 64.777 148.716V148.541C64.777 146.697 64.1946 145.27 63.0298 144.261C61.8845 143.251 60.2538 142.746 58.1378 142.746C55.9053 142.746 54.129 143.241 52.8089 144.232C51.4889 145.202 50.6153 146.425 50.1882 147.901L38.7152 146.969C39.2976 144.251 40.4429 141.902 42.1513 139.922C43.8596 137.922 46.063 136.389 48.7614 135.321C51.4792 134.234 54.6241 133.69 58.196 133.69C60.6809 133.69 63.0589 133.982 65.3303 134.564C67.621 135.146 69.6496 136.049 71.4162 137.272C73.2022 138.495 74.6096 140.067 75.6385 141.989C76.6674 143.892 77.1818 146.173 77.1818 148.832V179H65.4176V172.798H65.0682C64.3499 174.195 63.389 175.428 62.1854 176.496C60.9818 177.544 59.5355 178.369 57.8466 178.971C56.1577 179.553 54.2067 179.844 51.9936 179.844ZM55.5462 171.283C57.371 171.283 58.9822 170.924 60.38 170.206C61.7777 169.468 62.8745 168.478 63.6705 167.236C64.4664 165.993 64.8643 164.586 64.8643 163.013V158.267C64.4761 158.519 63.9422 158.752 63.2628 158.966C62.6027 159.16 61.8554 159.344 61.0206 159.519C60.1858 159.674 59.3511 159.82 58.5163 159.956C57.6816 160.072 56.9245 160.179 56.245 160.276C54.7891 160.49 53.5175 160.83 52.4304 161.295C51.3433 161.761 50.4988 162.392 49.897 163.188C49.2952 163.965 48.9943 164.935 48.9943 166.1C48.9943 167.789 49.6058 169.08 50.8288 169.973C52.0713 170.847 53.6437 171.283 55.5462 171.283ZM99.2106 153.142V179H86.8058V134.273H98.6282V142.164H99.1523C100.142 139.563 101.802 137.505 104.132 135.991C106.461 134.457 109.286 133.69 112.605 133.69C115.712 133.69 118.42 134.37 120.73 135.729C123.04 137.088 124.836 139.029 126.117 141.553C127.398 144.057 128.039 147.046 128.039 150.521V179H115.634V152.734C115.653 149.997 114.954 147.862 113.537 146.328C112.12 144.775 110.169 143.999 107.684 143.999C106.015 143.999 104.539 144.358 103.258 145.076C101.996 145.794 101.006 146.843 100.288 148.221C99.5891 149.58 99.23 151.22 99.2106 153.142ZM137.816 179V134.273H150.22V179H137.816ZM144.047 128.507C142.203 128.507 140.621 127.896 139.301 126.673C138 125.43 137.35 123.945 137.35 122.217C137.35 120.509 138 119.043 139.301 117.82C140.621 116.578 142.203 115.957 144.047 115.957C145.891 115.957 147.464 116.578 148.764 117.82C150.084 119.043 150.744 120.509 150.744 122.217C150.744 123.945 150.084 125.43 148.764 126.673C147.464 127.896 145.891 128.507 144.047 128.507ZM160.157 179V134.273H171.98V142.164H172.504C173.436 139.543 174.989 137.476 177.163 135.962C179.337 134.447 181.939 133.69 184.967 133.69C188.034 133.69 190.645 134.457 192.8 135.991C194.955 137.505 196.391 139.563 197.11 142.164H197.576C198.488 139.602 200.138 137.554 202.526 136.02C204.933 134.467 207.777 133.69 211.058 133.69C215.232 133.69 218.619 135.02 221.221 137.68C223.841 140.32 225.152 144.067 225.152 148.92V179H212.776V151.366C212.776 148.881 212.116 147.017 210.796 145.775C209.476 144.532 207.826 143.911 205.846 143.911C203.594 143.911 201.837 144.629 200.575 146.066C199.313 147.483 198.682 149.357 198.682 151.686V179H186.656V151.104C186.656 148.91 186.025 147.163 184.763 145.862C183.521 144.562 181.88 143.911 179.842 143.911C178.464 143.911 177.221 144.261 176.115 144.96C175.028 145.639 174.164 146.6 173.523 147.842C172.882 149.065 172.562 150.502 172.562 152.152V179H160.157ZM247.705 179.844C244.851 179.844 242.308 179.349 240.075 178.359C237.843 177.35 236.076 175.865 234.776 173.904C233.494 171.924 232.854 169.459 232.854 166.508C232.854 164.023 233.31 161.936 234.222 160.247C235.135 158.558 236.377 157.199 237.95 156.17C239.522 155.142 241.308 154.365 243.308 153.841C245.326 153.317 247.442 152.948 249.656 152.734C252.257 152.463 254.353 152.21 255.945 151.977C257.537 151.725 258.692 151.356 259.411 150.871C260.129 150.385 260.488 149.667 260.488 148.716V148.541C260.488 146.697 259.906 145.27 258.741 144.261C257.595 143.251 255.965 142.746 253.849 142.746C251.616 142.746 249.84 143.241 248.52 144.232C247.2 145.202 246.326 146.425 245.899 147.901L234.426 146.969C235.009 144.251 236.154 141.902 237.862 139.922C239.571 137.922 241.774 136.389 244.472 135.321C247.19 134.234 250.335 133.69 253.907 133.69C256.392 133.69 258.77 133.982 261.041 134.564C263.332 135.146 265.361 136.049 267.127 137.272C268.913 138.495 270.321 140.067 271.349 141.989C272.378 143.892 272.893 146.173 272.893 148.832V179H261.129V172.798H260.779C260.061 174.195 259.1 175.428 257.896 176.496C256.693 177.544 255.246 178.369 253.558 178.971C251.869 179.553 249.918 179.844 247.705 179.844ZM251.257 171.283C253.082 171.283 254.693 170.924 256.091 170.206C257.489 169.468 258.585 168.478 259.381 167.236C260.177 165.993 260.575 164.586 260.575 163.013V158.267C260.187 158.519 259.653 158.752 258.974 158.966C258.314 159.16 257.566 159.344 256.732 159.519C255.897 159.674 255.062 159.82 254.227 159.956C253.393 160.072 252.635 160.179 251.956 160.276C250.5 160.49 249.228 160.83 248.141 161.295C247.054 161.761 246.21 162.392 245.608 163.188C245.006 163.965 244.705 164.935 244.705 166.1C244.705 167.789 245.317 169.08 246.54 169.973C247.782 170.847 249.355 171.283 251.257 171.283ZM306.307 134.273V143.591H279.372V134.273H306.307ZM285.487 123.557H297.892V165.256C297.892 166.401 298.066 167.294 298.416 167.935C298.765 168.556 299.251 168.993 299.872 169.245C300.512 169.497 301.25 169.624 302.085 169.624C302.667 169.624 303.25 169.575 303.832 169.478C304.414 169.362 304.861 169.274 305.172 169.216L307.123 178.447C306.501 178.641 305.628 178.864 304.502 179.116C303.376 179.388 302.007 179.553 300.396 179.612C297.406 179.728 294.786 179.33 292.534 178.418C290.301 177.505 288.564 176.088 287.321 174.166C286.079 172.244 285.467 169.818 285.487 166.886V123.557ZM314.388 179V134.273H326.793V179H314.388ZM320.619 128.507C318.775 128.507 317.193 127.896 315.873 126.673C314.572 125.43 313.922 123.945 313.922 122.217C313.922 120.509 314.572 119.043 315.873 117.82C317.193 116.578 318.775 115.957 320.619 115.957C322.464 115.957 324.036 116.578 325.337 117.82C326.657 119.043 327.317 120.509 327.317 122.217C327.317 123.945 326.657 125.43 325.337 126.673C324.036 127.896 322.464 128.507 320.619 128.507ZM356.938 179.874C352.415 179.874 348.503 178.913 345.203 176.991C341.923 175.049 339.389 172.351 337.603 168.896C335.817 165.421 334.924 161.393 334.924 156.811C334.924 152.191 335.817 148.153 337.603 144.697C339.389 141.223 341.923 138.524 345.203 136.602C348.503 134.661 352.415 133.69 356.938 133.69C361.462 133.69 365.364 134.661 368.644 136.602C371.945 138.524 374.488 141.223 376.274 144.697C378.06 148.153 378.953 152.191 378.953 156.811C378.953 161.393 378.06 165.421 376.274 168.896C374.488 172.351 371.945 175.049 368.644 176.991C365.364 178.913 361.462 179.874 356.938 179.874ZM356.997 170.264C359.054 170.264 360.772 169.682 362.151 168.517C363.529 167.333 364.568 165.722 365.267 163.683C365.985 161.645 366.344 159.325 366.344 156.724C366.344 154.122 365.985 151.803 365.267 149.764C364.568 147.726 363.529 146.115 362.151 144.93C360.772 143.746 359.054 143.154 356.997 143.154C354.919 143.154 353.172 143.746 351.755 144.93C350.357 146.115 349.299 147.726 348.581 149.764C347.882 151.803 347.533 154.122 347.533 156.724C347.533 159.325 347.882 161.645 348.581 163.683C349.299 165.722 350.357 167.333 351.755 168.517C353.172 169.682 354.919 170.264 356.997 170.264ZM399.423 153.142V179H387.019V134.273H398.841V142.164H399.365C400.355 139.563 402.015 137.505 404.345 135.991C406.674 134.457 409.499 133.69 412.818 133.69C415.924 133.69 418.633 134.37 420.943 135.729C423.253 137.088 425.048 139.029 426.33 141.553C427.611 144.057 428.252 147.046 428.252 150.521V179H415.847V152.734C415.866 149.997 415.167 147.862 413.75 146.328C412.333 144.775 410.382 143.999 407.897 143.999C406.228 143.999 404.752 144.358 403.471 145.076C402.209 145.794 401.219 146.843 400.501 148.221C399.802 149.58 399.443 151.22 399.423 153.142Z" fill="white"/>
</svg>
