<svg width="36" height="31" viewBox="0 0 36 31" fill="none" xmlns="http://www.w3.org/2000/svg">
<path fill-rule="evenodd" clip-rule="evenodd" d="M30.125 25.1014V0.541718C26.5682 -0.66662 21.1511 0.156605 18.6816 2.9101V28.3198C21.4935 25.8764 26.0789 23.8869 30.125 25.1014Z" fill="#3E77E6" fill-opacity="0.89"/>
<path fill-rule="evenodd" clip-rule="evenodd" d="M8.67689 0.00268557C7.38069 0.00261638 6.15681 0.18604 5.17041 0.541608V25.1013C9.217 23.8869 13.8018 25.8761 16.6137 28.3197V2.9102C14.865 0.929488 11.5898 0.00282395 8.67689 0.00268557Z" fill="#3E77E6" fill-opacity="0.89"/>
<path fill-rule="evenodd" clip-rule="evenodd" d="M5.72766 27.0999C4.43904 27.4824 3.08294 26.4531 3.10211 25.1011V2.76831C2.23179 3.03905 1.38864 3.37663 0.575544 3.78042C0.223007 3.95541 0 4.31596 0 4.71062V29.9622C0 30.294 0.158138 30.6059 0.425402 30.8012C0.692735 30.9966 1.03693 31.0517 1.35162 30.9499C6.02911 29.4351 10.6195 29.3288 16.0782 30.6319C13.7868 28.3225 9.44074 25.9732 5.72766 27.0999Z" fill="#3E77E6" fill-opacity="0.89"/>
<path fill-rule="evenodd" clip-rule="evenodd" d="M34.7204 3.78015C33.9073 3.37635 33.0642 3.03891 32.1939 2.76831V25.1008C32.2126 26.4536 30.8571 27.4819 29.5683 27.0997C25.855 25.973 21.5093 28.3223 19.2178 30.6317C24.6767 29.3286 29.267 29.4349 33.9444 30.9497C34.259 31.0515 34.6033 30.9963 34.8706 30.801C35.1378 30.6057 35.296 30.2938 35.296 29.962V4.71034C35.296 4.31568 35.073 3.95513 34.7204 3.78015Z" fill="#3E77E6" fill-opacity="0.89"/>
</svg>