<svg width="23" height="20" viewBox="0 0 23 20" fill="none" xmlns="http://www.w3.org/2000/svg">
<path fill-rule="evenodd" clip-rule="evenodd" d="M18.8939 15.7065V0.339054C16.6632 -0.417025 13.2657 0.0980823 11.7169 1.82099V17.7203C13.4805 16.1914 16.3563 14.9466 18.8939 15.7065Z" fill="white"/>
<path fill-rule="evenodd" clip-rule="evenodd" d="M5.44058 0.00166812C4.62763 0.00162483 3.86003 0.116396 3.24138 0.338882V15.7063C5.77933 14.9464 8.65481 16.1912 10.4184 17.7201V1.82095C9.32167 0.581585 7.26748 0.00175471 5.44058 0.00166812Z" fill="white"/>
<path fill-rule="evenodd" clip-rule="evenodd" d="M3.59228 16.9564C2.78408 17.1957 1.93356 16.5517 1.94558 15.7057V1.73167C1.39974 1.90107 0.870929 2.1123 0.36097 2.36496C0.139866 2.47445 0 2.70006 0 2.947V18.7474C0 18.955 0.0991814 19.1501 0.266804 19.2723C0.43447 19.3946 0.650343 19.4291 0.847711 19.3654C3.78135 18.4176 6.66033 18.3511 10.0839 19.1664C8.64681 17.7214 5.92105 16.2514 3.59228 16.9564Z" fill="white"/>
<path fill-rule="evenodd" clip-rule="evenodd" d="M21.7741 2.36479C21.2641 2.11213 20.7353 1.90099 20.1895 1.73167V15.7055C20.2012 16.552 19.3511 17.1954 18.5427 16.9562C16.2138 16.2512 13.4883 17.7212 12.0511 19.1663C15.4748 18.3509 18.3538 18.4174 21.2874 19.3653C21.4847 19.4289 21.7006 19.3944 21.8683 19.2722C22.0359 19.15 22.1351 18.9549 22.1351 18.7472V2.94683C22.1351 2.69988 21.9952 2.47428 21.7741 2.36479Z" fill="white"/>
</svg>